<svg width="103" height="68" viewBox="0 0 103 68" fill="none" xmlns="http://www.w3.org/2000/svg">
<g filter="url(#filter0_d_91_17)">
<path fill-rule="evenodd" clip-rule="evenodd" d="M88.542 51.0597H92.3228C92.6863 51.0582 93.0484 51.108 93.4003 51.2077C93.7336 51.3001 94.0468 51.4642 94.3219 51.6905C94.595 51.9239 94.8143 52.2244 94.9623 52.5679C95.131 52.9794 95.2119 53.4278 95.1986 53.8788C95.2081 54.3504 95.1401 54.82 94.9977 55.265C94.8773 55.6261 94.6776 55.9488 94.4164 56.2048C94.1511 56.4484 93.8407 56.6256 93.5067 56.7239C93.1214 56.8372 92.7239 56.8922 92.3252 56.8875H90.6167V59.8079H88.542V51.0597ZM90.6167 55.1223H92.0227C92.3072 55.136 92.5884 55.0505 92.8261 54.8783C93.0519 54.6708 93.1688 54.3535 93.138 54.032C93.1705 53.6963 93.0524 53.3642 92.8214 53.1416C92.5882 52.9613 92.3076 52.8701 92.0227 52.882H90.6261L90.6167 55.1223ZM75.1554 56.1892C75.1554 57.456 74.8782 58.4078 74.3237 59.0447C73.7691 59.6815 72.8893 59.9982 71.6842 59.9948C70.479 59.9948 69.5992 59.6781 69.0447 59.0447C68.4901 58.4113 68.2129 57.4594 68.2129 56.1892V51.0597H70.2829V56.332C70.253 56.7837 70.3638 57.2332 70.5972 57.6065C70.8051 57.8956 71.1659 58.0392 71.6794 58.0375C72.193 58.0357 72.5538 57.8921 72.7617 57.6065C72.9932 57.2323 73.1031 56.7833 73.0736 56.332V51.0597H75.1507L75.1554 56.1892ZM47.2718 55.4286C47.2674 54.8222 47.3561 54.2193 47.5341 53.6452C47.7027 53.1129 47.9653 52.6225 48.3068 52.2019C48.6499 51.7836 49.0704 51.4508 49.5403 51.2258C50.6114 50.7516 51.8081 50.7516 52.8792 51.2258C53.3487 51.4502 53.7686 51.7831 54.1104 52.2019C54.4511 52.6256 54.7114 53.1199 54.876 53.6556C55.2257 54.8144 55.2257 56.0662 54.876 57.225C54.7106 57.7579 54.4503 58.2494 54.1104 58.6709C53.7691 59.0896 53.3491 59.4218 52.8792 59.6443C51.8081 60.1186 50.6114 60.1186 49.5403 59.6443C49.0699 59.4216 48.6491 59.0894 48.3068 58.6709C47.9684 58.2486 47.7091 57.7573 47.5435 57.225C47.3646 56.6476 47.2759 56.0411 47.2812 55.4312L47.2718 55.4286ZM49.3465 55.4286C49.3456 55.7512 49.3798 56.0727 49.4481 56.3865C49.5099 56.6832 49.6196 56.9654 49.7719 57.2198C50.0906 57.7439 50.6265 58.0586 51.2003 58.0586C51.7741 58.0586 52.31 57.7439 52.6288 57.2198C52.7811 56.9654 52.8907 56.6832 52.9525 56.3865C53.0848 55.757 53.0848 55.1027 52.9525 54.4733C52.8916 54.1762 52.7819 53.8939 52.6288 53.64C52.31 53.1159 51.7741 52.8012 51.2003 52.8012C50.6265 52.8012 50.0906 53.1159 49.7719 53.64C49.6187 53.8939 49.509 54.1762 49.4481 54.4733C49.3828 54.7874 49.3518 55.109 49.356 55.4312L49.3465 55.4286ZM27.5122 51.0597H31.5742C31.9198 51.0588 32.2642 51.1041 32.5998 51.1947C32.9196 51.2778 33.2225 51.4257 33.493 51.6308C33.7532 51.8305 33.9689 52.0923 34.1239 52.3966C34.2909 52.743 34.3723 53.1314 34.3602 53.5232C34.3626 53.9845 34.2568 54.4386 34.053 54.8419C33.8445 55.25 33.5089 55.5615 33.1078 55.7193V55.7323C33.3043 55.7831 33.4852 55.8896 33.6324 56.0412C33.7751 56.1899 33.892 56.3658 33.9774 56.5604C34.0682 56.7606 34.1357 56.9725 34.1783 57.1912C34.2218 57.4032 34.2518 57.6184 34.2681 57.835C34.2681 57.9258 34.2823 58.0634 34.2894 58.2529C34.2964 58.4424 34.313 58.6371 34.3343 58.8396C34.3556 59.0341 34.3896 59.2267 34.4359 59.4159C34.4636 59.5598 34.521 59.6947 34.6036 59.8105H32.5502C32.4975 59.7149 32.4592 59.6106 32.4367 59.5015C32.4068 59.3665 32.3847 59.2295 32.3706 59.0914C32.3564 58.9486 32.3446 58.8162 32.3375 58.6942C32.3304 58.5722 32.321 58.4762 32.3139 58.4113C32.2997 58.1906 32.2784 57.9752 32.2477 57.7623C32.2213 57.5613 32.1646 57.3666 32.0799 57.186C32.0097 57.02 31.9014 56.8769 31.7656 56.7707C31.5882 56.6574 31.3846 56.6033 31.1796 56.6149H29.6058V59.8053H27.5122V51.0597ZM29.5869 54.8601H31.3285C31.5868 54.8803 31.8418 54.7869 32.0374 54.6005C32.2122 54.3889 32.298 54.1063 32.2737 53.8217C32.2936 53.5394 32.177 53.2663 31.9665 53.1027C31.7457 52.9466 31.4869 52.8679 31.2245 52.8768H29.5704L29.5869 54.8601ZM14.18 59.8157H12.8615L12.7268 58.8474C12.5992 59.0549 12.4392 59.2359 12.2542 59.3821C12.0756 59.5235 11.883 59.6419 11.68 59.7352C11.4875 59.8237 11.2871 59.8899 11.0821 59.9325C10.8905 59.9722 10.6959 59.9922 10.5008 59.9922C9.93843 59.9973 9.38134 59.8726 8.8656 59.6262C8.38976 59.4021 7.96223 59.0704 7.61084 58.6527C7.26067 58.2331 6.98926 57.7417 6.81214 57.2068C6.4404 56.052 6.4404 54.7922 6.81214 53.6374C6.98926 53.1025 7.26067 52.6111 7.61084 52.1915C7.96274 51.7738 8.3901 51.4414 8.8656 51.2154C9.38225 50.9774 9.93828 50.8598 10.4985 50.8702C10.9152 50.8716 11.33 50.9336 11.7319 51.0545C12.1336 51.1715 12.5134 51.3648 12.8544 51.6256C13.1939 51.8877 13.481 52.2234 13.698 52.612C13.9338 53.0443 14.073 53.5318 14.1044 54.0346H12.0344C12.0057 53.6706 11.8216 53.3432 11.5382 53.152C11.2159 52.9302 10.8407 52.819 10.4606 52.8327C9.89111 52.8092 9.3524 53.1169 9.04283 53.6426C8.88971 53.8965 8.78001 54.1788 8.7191 54.4759C8.58357 55.1049 8.58357 55.76 8.7191 56.3891C8.7809 56.6858 8.89054 56.968 9.04283 57.2224C9.3524 57.7481 9.89111 58.0558 10.4606 58.0323C10.9035 58.0535 11.3418 57.9268 11.7178 57.6688C12.0258 57.454 12.2349 57.1042 12.292 56.7084H10.8411V55.0158H14.1895L14.18 59.8157Z" fill="#6D6D6D"/>
<path fill-rule="evenodd" clip-rule="evenodd" d="M81.4226 15.4834C81.986 12.8086 83.1578 10.7128 86.2811 10.8007C88.9718 10.9351 90.7972 13.3436 90.1436 15.9744L89.0597 21.4998C88.9717 22.257 89.5803 22.4353 90.058 22.4769H94.7429C97.9542 22.5672 99.0832 24.9196 98.9953 27.0252C98.8669 29.2554 97.0438 31.3952 93.5283 31.085H88.7127C87.9349 31.1064 87.2328 31.5692 86.8896 32.2868L85.8913 37.3774C85.4159 39.8201 85.0665 43.1739 80.9449 43.0396C77.6481 42.9516 76.3883 39.8298 77.3438 36.8864L78.2114 32.1598C78.1686 31.4905 77.8644 31.1827 77.301 31.0898H72.6922C70.5244 31.0434 68.7869 28.994 68.832 26.8982C68.9176 24.3553 70.6979 22.257 73.9519 22.4818H78.8983C79.6352 22.2595 80.1129 21.9932 80.3245 21.1456L81.4226 15.4834ZM24.2313 0.00397336C12.6438 -0.218313 5.21585 8.92229 11.0821 18.3243C5.74591 21.6366 3.83723 26.4536 4.01075 30.5109C4.26983 36.8449 9.69399 42.3727 16.6798 42.3727L31.8684 42.3287C33.7699 42.2848 39.7645 41.5251 42.3269 34.1237C43.2776 31.7152 44.1928 28.2807 45.1792 24.2234C45.8732 22.2179 47.6536 20.1661 50.04 20.0317H52.6C55.5069 20.4787 56.4173 22.4744 55.7684 25.7843L52.4882 41.4371C52.3147 42.0161 52.6618 42.3727 53.1823 42.4142H59.8211C60.3868 42.4142 60.8194 42.1895 60.9073 41.4762L64.1186 25.1101C66.3743 8.43375 41.6851 8.07712 37.6919 21.446L34.6969 31.4807C34.1764 33.0855 32.2249 34.1994 29.7933 34.2458H17.1576C14.5097 34.0211 13.0787 31.4807 13.2095 28.9378C13.3402 26.4414 15.111 23.2317 18.9379 23.1853H29.9573C30.6086 23.2317 30.9556 22.963 31.0008 22.384L31.9516 16.4532C32.0395 15.9182 31.866 15.5616 31.2147 15.5152H21.4978C19.6866 15.1268 18.2414 14.4159 17.8944 11.729C17.8944 8.82947 19.6747 7.75956 22.0184 7.57636L34.6018 7.48598C35.0772 7.48598 35.4266 7.26369 35.5122 6.77271L36.5985 0.590223C36.6413 0.187176 36.4677 -0.0351099 36.0328 0.00885877L24.2313 0.00397336Z" fill="#6D6D6D"/>
</g>
<defs>
<filter id="filter0_d_91_17" x="0" y="0" width="103" height="68" filterUnits="userSpaceOnUse" color-interpolation-filters="sRGB">
<feFlood flood-opacity="0" result="BackgroundImageFix"/>
<feColorMatrix in="SourceAlpha" type="matrix" values="0 0 0 0 0 0 0 0 0 0 0 0 0 0 0 0 0 0 127 0" result="hardAlpha"/>
<feOffset dy="4"/>
<feGaussianBlur stdDeviation="2"/>
<feComposite in2="hardAlpha" operator="out"/>
<feColorMatrix type="matrix" values="0 0 0 0 0 0 0 0 0 0 0 0 0 0 0 0 0 0 0.25 0"/>
<feBlend mode="normal" in2="BackgroundImageFix" result="effect1_dropShadow_91_17"/>
<feBlend mode="normal" in="SourceGraphic" in2="effect1_dropShadow_91_17" result="shape"/>
</filter>
</defs>
</svg>
