<svg width="52" height="52" viewBox="0 0 52 52" fill="#ffffff" xmlns="http://www.w3.org/2000/svg">
<g filter="url(#filter0_d_151_142)">
<path d="M4 14C4 6.26801 10.268 0 18 0H34C41.732 0 48 6.26801 48 14V30C48 37.732 41.732 44 34 44H18C10.268 44 4 37.732 4 30V14Z" fill="#FF941A"/>
</g>
<path d="M14.2929 20.2929C13.9024 20.6834 13.9024 21.3166 14.2929 21.7071L20.6569 28.0711C21.0474 28.4616 21.6805 28.4616 22.0711 28.0711C22.4616 27.6805 22.4616 27.0474 22.0711 26.6569L16.4142 21L22.0711 15.3431C22.4616 14.9526 22.4616 14.3195 22.0711 13.9289C21.6805 13.5384 21.0474 13.5384 20.6569 13.9289L14.2929 20.2929ZM38 20L15 20V22L38 22V20Z" fill="№ffffff"/>
<defs>
<filter id="filter0_d_151_142" x="0" y="0" width="52" height="52" filterUnits="userSpaceOnUse" color-interpolation-filters="sRGB">
<feFlood flood-opacity="0" result="BackgroundImageFix"/>
<feColorMatrix in="SourceAlpha" type="matrix" values="0 0 0 0 0 0 0 0 0 0 0 0 0 0 0 0 0 0 127 0" result="hardAlpha"/>
<feOffset dy="4"/>
<feGaussianBlur stdDeviation="2"/>
<feComposite in2="hardAlpha" operator="out"/>
<feColorMatrix type="matrix" values="0 0 0 0 0 0 0 0 0 0 0 0 0 0 0 0 0 0 0.25 0"/>
<feBlend mode="normal" in2="BackgroundImageFix" result="effect1_dropShadow_151_142"/>
<feBlend mode="normal" in="SourceGraphic" in2="effect1_dropShadow_151_142" result="shape"/>
</filter>
</defs>
</svg>
