<svg width="8" height="8" viewBox="0 0 32 32" fill="none" xmlns="http://www.w3.org/2000/svg">
<path fill-rule="evenodd" clip-rule="evenodd" d="M15.0208 16.435L3.70711 5.12132C3.31658 4.7308 3.31658 4.09763 3.70711 3.70711C4.09763 3.31658 4.7308 3.31658 5.12132 3.70711L16.435 15.0208L27.7487 3.70711C28.1393 3.31658 28.7724 3.31658 29.163 3.70711C29.5535 4.09763 29.5535 4.7308 29.163 5.12132L17.8492 16.435L29.163 27.7487C29.5535 28.1393 29.5535 28.7724 29.163 29.163C28.7724 29.5535 28.1393 29.5535 27.7487 29.163L16.435 17.8492L5.12132 29.163C4.7308 29.5535 4.09763 29.5535 3.70711 29.163C3.31658 28.7724 3.31658 28.1393 3.70711 27.7487L15.0208 16.435Z" fill="black"/>
</svg>
