<svg width="273" height="273" viewBox="0 0 273 273" fill="none" xmlns="http://www.w3.org/2000/svg">
<path d="M136.5 0C61.1125 0 0 61.1125 0 136.5C0 211.887 61.1125 273 136.5 273C211.887 273 273 211.887 273 136.5C273 61.1125 211.887 0 136.5 0Z" fill="#40B3E0"/>
<path d="M202.919 78.5203L178.538 201.442C178.538 201.442 175.129 209.967 165.752 205.875L109.491 162.741L89.0328 152.853L54.5942 141.259C54.5942 141.259 49.3091 139.384 48.7972 135.293C48.2864 131.201 54.7649 128.985 54.7649 128.985L191.666 75.2806C191.666 75.2806 202.919 70.3367 202.919 78.5203Z" fill="white"/>
<path d="M105.167 200.062C105.167 200.062 103.524 199.908 101.478 193.429C99.4326 186.95 89.033 152.853 89.033 152.853L171.719 100.343C171.719 100.343 176.493 97.4445 176.323 100.343C176.323 100.343 177.175 100.854 174.617 103.24C172.06 105.628 109.662 161.718 109.662 161.718" fill="#D2E5F1"/>
<path d="M131.063 179.279L108.809 199.569C108.809 199.569 107.07 200.889 105.166 200.061L109.428 162.374" fill="#B5CFE4"/>
</svg>
