<svg width="58" height="53" viewBox="0 0 58 53" fill="none" xmlns="http://www.w3.org/2000/svg">
<path d="M57.5 26.5C57.5 40.8179 44.7835 52.5 29 52.5C13.2165 52.5 0.5 40.8179 0.5 26.5C0.5 12.1821 13.2165 0.5 29 0.5C44.7835 0.5 57.5 12.1821 57.5 26.5Z" fill="white" stroke="#BAB5B5"/>
<path d="M33.142 18.5455H35.7841V30.0256C35.7841 31.2472 35.4972 32.3295 34.9233 33.2727C34.3494 34.2102 33.5426 34.9489 32.5028 35.4886C31.4631 36.0227 30.2443 36.2898 28.8466 36.2898C27.4545 36.2898 26.2386 36.0227 25.1989 35.4886C24.1591 34.9489 23.3523 34.2102 22.7784 33.2727C22.2045 32.3295 21.9176 31.2472 21.9176 30.0256V18.5455H24.5511V29.8125C24.5511 30.6023 24.7244 31.304 25.071 31.9176C25.4233 32.5312 25.9205 33.0142 26.5625 33.3665C27.2045 33.7131 27.9659 33.8864 28.8466 33.8864C29.733 33.8864 30.4972 33.7131 31.1392 33.3665C31.7869 33.0142 32.2813 32.5312 32.6222 31.9176C32.9688 31.304 33.142 30.6023 33.142 29.8125V18.5455Z" fill="black"/>
</svg>
