<svg width="96" height="59" viewBox="0 0 96 59" fill="none" xmlns="http://www.w3.org/2000/svg">
<path fill-rule="evenodd" clip-rule="evenodd" d="M78.128 15.5068C78.6801 12.8201 79.8948 10.805 82.9868 10.805C85.7476 10.9169 87.5144 13.3797 86.8518 15.9546L85.7476 21.4399C85.6371 22.2234 86.2996 22.3354 86.7413 22.4474H91.4897C94.6922 22.5594 95.9069 24.9102 95.7965 26.9253C95.6861 29.1642 93.8087 31.2911 90.275 30.9553H85.4162C84.6432 30.9553 83.8702 31.515 83.539 32.1867L82.5451 37.2242C82.1034 39.6871 81.6617 42.9336 77.5758 42.8216C74.263 42.7096 72.9379 39.5751 73.9317 36.6646L74.8152 31.9627C74.8152 31.2911 74.4838 30.9553 73.9317 30.8433H69.2937C67.0851 30.8433 65.3183 28.7164 65.4287 26.7013C65.5392 24.1266 67.306 22.1116 70.6188 22.3354H75.5881C76.3611 22.1116 76.8028 21.8876 77.0237 20.9921L78.128 15.5068ZM20.4845 0.0581907C8.77916 -0.165701 1.38048 8.90192 7.23317 18.3054C1.8222 21.5518 -0.0550781 26.3655 0.0553498 30.3956C0.276206 36.6646 5.79761 42.1498 12.865 42.1498H28.2146C30.0917 42.1498 36.1653 41.3662 38.7052 33.9778C39.699 31.6269 40.5824 28.1566 41.5763 24.1266C42.2388 22.1116 44.1161 20.0965 46.4352 19.9845H48.975C51.9565 20.4323 52.8399 22.4474 52.1774 25.6939L48.8645 41.2543C48.6437 41.814 49.0854 42.1498 49.5271 42.2618H56.2632C56.8154 42.2618 57.2571 42.038 57.3675 41.3662L60.5699 25.1341C62.8889 8.56608 37.9321 8.23025 33.9567 21.5518L30.9752 31.515C30.5335 32.9703 28.5458 34.0898 26.1163 34.0898H13.3067C10.6564 33.8659 9.22088 31.2911 9.33131 28.8283C9.44173 26.3655 11.2086 23.119 15.0736 23.119H26.2268C26.8894 23.119 27.2207 22.8952 27.2207 22.3354L28.2146 16.4024C28.3249 15.8426 28.1041 15.5068 27.4415 15.5068H17.6134C15.7361 15.059 14.3005 14.3873 13.9693 11.7006C13.9693 8.78997 15.7361 7.78246 18.1656 7.55857L30.8648 7.44663C31.3065 7.44663 31.7481 7.22273 31.7481 6.77495L32.8525 0.617921C32.8525 0.170137 32.742 -0.0537553 32.3003 0.0581907H20.4845ZM6.46018 50.5458C7.01232 50.5458 7.45403 50.6578 7.89574 50.7697C8.33746 50.9936 8.77917 51.2175 9.11045 51.5533C9.44173 51.8891 9.66259 52.3369 9.88344 52.7847C10.1043 53.3445 10.1043 53.9042 10.1043 54.5759C10.1043 55.1356 9.99388 55.6954 9.88344 56.255C9.77302 56.8148 9.55216 57.1506 9.22087 57.5984C8.88959 57.9343 8.55831 58.2701 8.1166 58.4939C7.67489 58.7179 7.12274 58.8299 6.46018 58.8299H2.92648V50.6578H6.46018V50.5458ZM6.34975 57.2626C6.5706 57.2626 6.90189 57.2626 7.12275 57.1506C7.34361 57.0387 7.56445 56.9268 7.78531 56.7028C8.00617 56.479 8.1166 56.255 8.22702 55.9192C8.33746 55.5834 8.44788 55.2476 8.44788 54.7998C8.44788 54.352 8.44788 54.0161 8.33746 53.6803C8.22702 53.3445 8.1166 53.0087 7.89574 52.7847C7.67489 52.5609 7.45403 52.3369 7.23317 52.2249C6.90189 52.1131 6.5706 52.0011 6.12889 52.0011H4.91418V57.1506H6.34975V57.2626ZM21.3679 50.5458V58.7179H19.6011V50.5458H21.3679ZM35.834 58.7179C35.5028 58.8299 35.0611 58.9417 34.6193 58.9417C33.9567 58.9417 33.4047 58.8299 32.9629 58.6059C32.5212 58.3821 32.0795 58.0462 31.7481 57.7104C31.4169 57.3745 31.1961 56.9268 30.9752 56.367C30.7544 55.8072 30.7544 55.2476 30.7544 54.6878C30.7544 54.1281 30.8648 53.4565 30.9752 53.0087C31.1961 52.4489 31.4169 52.0011 31.7481 51.6653C32.0795 51.3294 32.5212 50.9936 32.9629 50.7697C33.4047 50.5458 33.9567 50.4339 34.6193 50.4339C35.0611 50.4339 35.3923 50.5458 35.834 50.6578C36.2757 50.7697 36.607 50.9936 36.9384 51.2175C37.2696 51.4414 37.4904 51.7773 37.7113 52.1131C37.9321 52.4489 38.0426 52.8967 38.0426 53.3445H36.3862C36.2757 52.8967 36.0549 52.5609 35.7236 52.3369C35.3923 52.1131 35.0611 52.0011 34.6193 52.0011C34.1776 52.0011 33.8464 52.1131 33.6255 52.2249C33.2942 52.3369 33.0733 52.5609 32.9629 52.8967C32.742 53.1206 32.6316 53.4564 32.6316 53.7923C32.5212 54.1281 32.5212 54.4639 32.5212 54.7998C32.5212 55.1356 32.5212 55.4714 32.6316 55.8072C32.742 56.1432 32.8525 56.479 32.9629 56.7028C33.1837 56.9268 33.4047 57.1506 33.6255 57.3745C33.9567 57.4865 34.2881 57.5984 34.6193 57.5984C35.1715 57.5984 35.6132 57.4865 35.9445 57.1506C36.2757 56.8148 36.4967 56.367 36.4967 55.8072H34.7298V54.4639H38.153V58.9417H37.0487L36.8279 58.0462C36.4967 58.2701 36.1653 58.6059 35.834 58.7179ZM49.1958 50.5458V58.7179H47.429V50.5458H49.1958ZM58.9135 52.1131V50.5458H65.5392V52.1131H63.1098V58.8299H61.343V52.1131H58.9135ZM77.0237 50.5458L80.0053 58.7179H78.128L77.4655 56.9268H74.5943L73.9317 58.7179H72.1649L75.2569 50.5458H77.0237ZM77.1341 55.5834L76.1403 52.5609L75.036 55.5834H77.1341ZM88.9499 50.5458V57.2626H92.9253V58.8299H87.183V50.6578H88.9499V50.5458Z" fill="#46433E"/>
</svg>
